{
  "accessors": [
    {
      "bufferView": 2,
      "componentType": 5126,
      "count": 325,
      "max": [33.329322814941406, 85.0, 210.0],
      "min": [-33.032440185546875, -85.0, 0.0],
      "type": "VEC3"
    },
    {
      "bufferView": 2,
      "byteOffset": 3900,
      "componentType": 5126,
      "count": 325,
      "max": [0.9999972581863403, 1.0, 1.0],
      "min": [-0.9999972581863403, -1.0, -1.0],
      "type": "VEC3"
    },
    {
      "bufferView": 3,
      "componentType": 5126,
      "count": 325,
      "max": [1.0, 1.0, 0.35267573595046997, 1.0],
      "min": [
        -0.9999960660934448, -0.999997615814209, -0.35215887427330017, 1.0
      ],
      "type": "VEC4"
    },
    {
      "bufferView": 1,
      "componentType": 5126,
      "count": 325,
      "max": [0.9520508646965027, 0.9680806994438171],
      "min": [0.015878411009907722, 0.15559835731983185],
      "type": "VEC2"
    },
    {
      "bufferView": 0,
      "componentType": 5125,
      "count": 1266,
      "type": "SCALAR"
    }
  ],
  "asset": {
    "extras": {
      "author": "Polygon Alley (https://sketchfab.com/jmayala)",
      "license": "CC-BY-4.0 (http://creativecommons.org/licenses/by/4.0/)",
      "source": "https://sketchfab.com/3d-models/protein-sachet-884d67946a954f43b03727a73121c5bd",
      "title": "Protein Sachet"
    },
    "generator": "Sketchfab-12.66.0",
    "version": "2.0"
  },
  "bufferViews": [
    {
      "buffer": 0,
      "byteLength": 5064,
      "name": "floatBufferViews",
      "target": 34963
    },
    {
      "buffer": 0,
      "byteLength": 2600,
      "byteOffset": 5064,
      "byteStride": 8,
      "name": "floatBufferViews",
      "target": 34962
    },
    {
      "buffer": 0,
      "byteLength": 7800,
      "byteOffset": 7664,
      "byteStride": 12,
      "name": "floatBufferViews",
      "target": 34962
    },
    {
      "buffer": 0,
      "byteLength": 5200,
      "byteOffset": 15464,
      "byteStride": 16,
      "name": "floatBufferViews",
      "target": 34962
    }
  ],
  "buffers": [
    {
      "byteLength": 20664,
      "uri": "scene.bin"
    }
  ],
  "images": [
    {
      "uri": "textures/Scene_-_Root_baseColor.png"
    },
    {
      "uri": "textures/Scene_-_Root_metallicRoughness.png"
    },
    {
      "uri": "textures/Scene_-_Root_normal.png"
    }
  ],
  "materials": [
    {
      "doubleSided": true,
      "name": "Scene_-_Root",
      "normalTexture": {
        "index": 2
      },
      "pbrMetallicRoughness": {
        "baseColorTexture": {
          "index": 0
        },
        "metallicFactor": 1,
        "roughnessFactor": 1
      }
    }
  ],
  "meshes": [
    {
      "name": "Box001__0",
      "primitives": [
        {
          "attributes": {
            "NORMAL": 1,
            "POSITION": 0,
            "TANGENT": 2,
            "TEXCOORD_0": 3
          },
          "indices": 4,
          "material": 0,
          "mode": 4
        }
      ]
    }
  ],
  "nodes": [
    {
      "children": [1],
      "matrix": [
        1.0, 0.0, 0.0, 0.0, 0.0, 3.828568672208042e-16, -1.0, 0.0, 0.0, 1.0,
        3.828568672208042e-16, 0.0, 0.0, 3.7492815497443156e-30,
        -1.6885262990335576e-14, 1.0
      ],
      "name": "Sketchfab_model"
    },
    {
      "children": [2],
      "matrix": [
        1.0, 0.0, 0.0, 0.0, 0.0, 0.0, 1.0, 0.0, 0.0, -1.0, 0.0, 0.0, 0.0, 0.0,
        0.0, 1.0
      ],
      "name": "968a73c086cd4cb0ba7e7ac2163a6177.fbx"
    },
    {
      "children": [3],
      "name": "RootNode"
    },
    {
      "children": [4],
      "matrix": [
        1.0, 0.0, 0.0, 0.0, 0.0, 2.220446049250313e-16, -1.0, 0.0, 0.0, 1.0,
        2.220446049250313e-16, 0.0, 0.0, 0.0, 0.0, 1.0
      ],
      "name": "Box001"
    },
    {
      "mesh": 0,
      "name": "Box001__0"
    }
  ],
  "samplers": [
    {
      "magFilter": 9729,
      "minFilter": 9987,
      "wrapS": 10497,
      "wrapT": 10497
    }
  ],
  "scene": 0,
  "scenes": [
    {
      "name": "Sketchfab_Scene",
      "nodes": [0]
    }
  ],
  "textures": [
    {
      "sampler": 0,
      "source": 0
    },
    {
      "sampler": 0,
      "source": 1
    },
    {
      "sampler": 0,
      "source": 2
    }
  ]
}
